<svg width="93" height="100" viewBox="0 0 93 100" fill="none" xmlns="http://www.w3.org/2000/svg">
<g opacity="0.1">
<path d="M53.5454 73.5659C50.1283 77.6478 45.9763 80.567 40.9687 82.1239C29.9937 85.5354 19.9632 83.7045 11.2359 76.1353C6.29933 71.8538 3.32288 66.266 1.63768 59.9713C0.476542 55.6346 -0.000446081 51.1981 0.176438 46.7511C0.701395 33.5714 5.97255 22.5079 15.5477 13.4838C21.9104 7.48742 29.3588 3.47303 37.8939 1.54019C42.0902 0.589806 46.3375 0.308588 50.6526 0.498064C58.4244 0.839243 65.5981 2.98585 72.1884 7.10397C72.5917 7.35581 73.0279 7.57496 73.4278 8.11701C72.0409 7.73806 70.8153 7.33362 69.54 7.10907C64.4568 6.21325 59.4156 6.36825 54.3867 7.5138C47.3041 9.12705 40.8053 11.9995 35.0835 16.5026C29.1462 21.1753 24.5676 26.895 21.878 34.0313C19.9554 39.1327 19.3144 44.4303 19.855 49.807C20.4798 56.0238 22.9588 61.5408 26.9333 66.3751C30.2102 70.361 34.1973 73.3633 39.1908 74.7888C43.7814 76.0993 48.3477 76.1251 52.6892 73.7371C52.9026 73.6193 53.1089 73.4166 53.5454 73.5659Z" fill="white" fill-opacity="0.52"/>
<path d="M13.3145 84.2216C14.6078 84.7942 15.703 85.6759 16.9322 86.3406C26.8266 91.6927 36.8865 92.0468 47.1146 87.3857C55.8989 83.3827 62.4223 76.9111 67.4114 68.757C69.2294 65.7854 70.7758 62.6491 72.8219 59.8168C74.7179 57.1926 77.0965 55.2943 80.3728 54.6554C85.0102 53.7512 89.6301 56.1973 91.482 60.5867C93.2266 64.7219 92.7292 68.811 91.0752 72.7966C88.2612 79.5776 83.62 84.945 77.8071 89.329C71.2507 94.2734 63.8581 97.3212 55.7934 98.733C50.9401 99.5827 46.0716 99.6165 41.1827 98.8721C33.2223 97.6603 25.9821 94.7198 19.4448 90.0426C17.1385 88.3924 15.2002 86.3373 13.3145 84.2216Z" fill="white" fill-opacity="0.52"/>
<path d="M41.3926 22.7324C42.8673 20.7237 44.807 19.2289 46.8529 17.8801C52.131 14.4012 57.8332 11.8618 64.0829 10.8083C68.7251 10.0258 73.3577 10.1424 77.6745 12.4174C81.5009 14.4338 84.1842 17.455 84.9826 21.7602C86.2124 28.3928 81.5477 34.3157 74.9667 34.0546C72.0679 33.9395 69.721 32.6116 67.8422 30.4371C65.9225 28.2153 64.0521 25.9559 61.5865 24.2788C57.3601 21.404 52.7024 20.4797 47.6801 21.0298C45.6078 21.2568 43.6615 21.8798 41.776 22.7321C41.6564 22.7864 41.5473 22.8488 41.3926 22.7324Z" fill="white" fill-opacity="0.52"/>
</g>
</svg>
