<svg width="1289" height="152" viewBox="0 0 1289 152" fill="none" xmlns="http://www.w3.org/2000/svg">
<path d="M107.915 78.581C107.915 88.327 106.825 97.496 104.645 106.088C102.465 114.616 99.163 122.087 94.738 128.499C90.314 134.847 84.703 139.848 77.907 143.503C71.174 147.222 63.191 149.081 53.957 149.081C44.788 149.081 36.805 147.222 30.008 143.503C23.276 139.848 17.665 134.847 13.177 128.499C8.752 122.087 5.45 114.616 3.27 106.088C1.09 97.496 0 88.327 0 78.581C0 71.399 0.673004 64.474 2.02 57.805C3.366 51.137 5.22601 44.917 7.59801 39.146C9.97101 33.375 12.824 28.117 16.158 23.372C19.492 18.628 23.147 14.588 27.123 11.254C31.162 7.855 35.426 5.226 39.915 3.367C44.468 1.507 49.148 0.578003 53.957 0.578003C62.037 0.578003 69.378 2.565 75.983 6.541C82.652 10.452 88.326 15.902 93.007 22.892C97.752 29.881 101.407 38.12 103.972 47.61C106.601 57.1 107.915 67.424 107.915 78.581ZM68.577 70.309C68.577 65.5 68.192 61.076 67.423 57.036C66.653 52.932 65.595 49.406 64.249 46.456C62.966 43.442 61.428 41.102 59.632 39.435C57.837 37.703 55.945 36.838 53.957 36.838C52.034 36.838 50.206 37.864 48.475 39.916C46.744 41.903 45.205 44.5 43.858 47.706C42.576 50.912 41.55 54.503 40.781 58.479C40.011 62.454 39.626 66.398 39.626 70.309C39.626 74.092 39.947 77.619 40.588 80.889C41.294 84.095 42.255 86.884 43.474 89.257C44.692 91.629 46.167 93.521 47.898 94.931C49.693 96.278 51.713 96.951 53.957 96.951C56.138 96.951 58.125 96.278 59.921 94.931C61.78 93.521 63.319 91.629 64.537 89.257C65.82 86.884 66.814 84.095 67.519 80.889C68.224 77.619 68.577 74.092 68.577 70.309ZM171.491 142.445C170.273 142.317 168.83 142.188 167.163 142.06C165.752 141.932 164.053 141.836 162.065 141.772C160.077 141.708 157.801 141.675 155.236 141.675C150.235 141.675 144.368 141.9 137.635 142.349C130.967 142.798 123.625 143.663 115.61 144.946C117.02 142.06 118.239 138.405 119.265 133.981C120.29 129.557 121.124 124.844 121.765 119.842C122.471 114.777 123.016 109.647 123.4 104.453C123.785 99.26 124.074 94.418 124.266 89.93C124.458 85.441 124.554 81.562 124.554 78.292C124.619 75.022 124.651 72.778 124.651 71.559C124.651 71.303 124.619 70.309 124.554 68.578C124.554 66.846 124.522 64.602 124.458 61.845C124.394 59.088 124.298 55.946 124.17 52.419C124.042 48.828 123.849 45.109 123.593 41.262C123.4 37.415 123.112 33.536 122.727 29.624C122.406 25.713 121.99 22.026 121.477 18.563C121.028 15.101 120.483 11.991 119.842 9.23401C119.265 6.41301 118.559 4.2 117.726 2.597C124.202 3.751 130.101 4.52101 135.423 4.90601C140.745 5.29001 145.49 5.483 149.658 5.483C152.479 5.483 154.98 5.41901 157.16 5.29001C159.404 5.16201 161.264 5.03401 162.738 4.90601C164.47 4.71301 166.009 4.52101 167.355 4.32901C170.112 17.922 173.254 30.522 176.781 42.128C180.308 53.734 184.283 64.506 188.707 74.445V70.501C188.515 60.05 188.162 50.303 187.649 41.262C187.393 37.415 187.104 33.536 186.784 29.624C186.463 25.713 186.046 22.026 185.533 18.563C185.085 15.101 184.54 11.991 183.898 9.23401C183.321 6.41301 182.616 4.2 181.782 2.597C188.194 3.751 194.094 4.52101 199.48 4.90601C204.93 5.29001 209.739 5.483 213.907 5.483C216.728 5.483 219.229 5.41901 221.409 5.29001C223.653 5.16201 225.513 5.03401 226.988 4.90601C228.719 4.71301 230.258 4.52101 231.604 4.32901C230.835 7.91901 230.162 11.927 229.584 16.351C229.007 20.776 228.494 25.488 228.046 30.49C227.597 35.491 227.244 40.749 226.988 46.264C226.795 51.778 226.699 57.453 226.699 63.288C226.699 69.892 226.859 76.625 227.18 83.486C227.501 90.283 228.013 97.079 228.719 103.876C229.488 110.609 230.418 117.245 231.508 123.786C232.662 130.262 234.009 136.482 235.548 142.445C234.394 142.317 233.015 142.188 231.412 142.06C230.065 141.932 228.43 141.836 226.507 141.772C224.583 141.708 222.403 141.675 219.966 141.675C215.35 141.675 210.028 141.9 204 142.349C197.973 142.798 191.497 143.663 184.572 144.946C184.572 138.341 184.027 131.897 182.937 125.613C181.911 119.265 180.436 113.045 178.512 106.954C176.589 100.798 174.28 94.771 171.587 88.872C168.894 82.973 165.912 77.138 162.642 71.367C162.706 77.394 162.931 83.486 163.316 89.641C163.764 95.797 164.341 101.888 165.047 107.916C165.816 113.943 166.714 119.874 167.74 125.709C168.83 131.48 170.08 137.059 171.491 142.445ZM330.96 144.369C328.715 143.856 326.054 143.407 322.976 143.022C319.963 142.637 316.789 142.349 313.455 142.156C310.184 141.964 306.914 141.836 303.644 141.772C300.438 141.643 297.521 141.579 294.892 141.579C292.327 141.515 290.211 141.483 288.544 141.483C286.876 141.483 285.979 141.483 285.851 141.483C281.875 141.547 277.579 141.74 272.962 142.06C268.987 142.381 264.434 142.83 259.304 143.407C254.239 144.048 248.917 144.914 243.338 146.004C244.621 141.066 245.743 135.552 246.705 129.46C247.667 123.305 248.468 116.797 249.109 109.936C249.75 103.075 250.231 95.989 250.552 88.68C250.873 81.37 251.033 74.06 251.033 66.75C251.033 60.723 250.905 54.792 250.648 48.957C250.456 43.058 250.103 37.415 249.59 32.029C249.141 26.643 248.564 21.545 247.859 16.736C247.218 11.927 246.416 7.53501 245.454 3.55901C252.123 4.77701 258.15 5.579 263.536 5.964C268.987 6.348 273.796 6.541 277.964 6.541C280.593 6.541 282.933 6.50901 284.985 6.44501C287.037 6.31601 288.768 6.188 290.179 6.06C291.846 5.867 293.289 5.675 294.507 5.483C293.096 10.099 291.782 15.101 290.563 20.487C289.345 25.873 288.287 31.42 287.389 37.126C286.556 42.769 285.883 48.444 285.37 54.15C284.921 59.857 284.696 65.308 284.696 70.501C284.696 77.106 285.113 82.78 285.947 87.525C286.78 92.206 287.999 96.053 289.602 99.067C291.269 102.017 293.256 104.197 295.565 105.607C297.937 107.018 300.63 107.723 303.644 107.723C307.684 107.723 311.659 106.281 315.571 103.395C319.546 100.446 322.976 96.182 325.862 90.603L330.96 144.369ZM391.842 142.445C390.496 142.317 388.989 142.188 387.322 142.06C385.847 141.932 384.084 141.836 382.032 141.772C379.98 141.708 377.607 141.675 374.914 141.675C369.721 141.675 363.693 141.9 356.832 142.349C349.971 142.798 342.533 143.663 334.518 144.946C335.929 142.06 337.147 138.405 338.173 133.981C339.199 129.557 340.033 124.844 340.674 119.842C341.379 114.777 341.924 109.647 342.309 104.453C342.694 99.26 342.982 94.418 343.175 89.93C343.367 85.441 343.463 81.562 343.463 78.292C343.527 75.022 343.559 72.778 343.559 71.559C343.559 71.303 343.527 70.309 343.463 68.578C343.463 66.846 343.431 64.602 343.367 61.845C343.303 59.088 343.207 55.946 343.078 52.419C342.95 48.828 342.758 45.109 342.501 41.262C342.309 37.415 342.02 33.536 341.636 29.624C341.315 25.713 340.898 22.026 340.385 18.563C339.936 15.101 339.391 11.991 338.75 9.23401C338.173 6.41301 337.468 4.2 336.634 2.597C343.11 3.751 349.042 4.52101 354.428 4.90601C359.878 5.29001 364.783 5.483 369.144 5.483C372.029 5.483 374.626 5.41901 376.934 5.29001C379.243 5.16201 381.198 5.03401 382.801 4.90601C384.661 4.71301 386.296 4.52101 387.707 4.32901C386.937 7.91901 386.264 11.927 385.687 16.351C385.11 20.711 384.597 25.392 384.148 30.394C383.699 35.331 383.346 40.525 383.09 45.975C382.897 51.425 382.801 57.036 382.801 62.807C382.801 69.475 382.962 76.272 383.282 83.197C383.603 90.058 384.116 96.887 384.821 103.684C385.591 110.481 386.52 117.149 387.61 123.69C388.765 130.23 390.175 136.482 391.842 142.445ZM455.033 142.445C453.815 142.317 452.372 142.188 450.705 142.06C449.295 141.932 447.595 141.836 445.608 141.772C443.62 141.708 441.344 141.675 438.779 141.675C433.777 141.675 427.91 141.9 421.178 142.349C414.509 142.798 407.167 143.663 399.152 144.946C400.563 142.06 401.781 138.405 402.807 133.981C403.833 129.557 404.666 124.844 405.308 119.842C406.013 114.777 406.558 109.647 406.943 104.453C407.327 99.26 407.616 94.418 407.808 89.93C408.001 85.441 408.097 81.562 408.097 78.292C408.161 75.022 408.193 72.778 408.193 71.559C408.193 71.303 408.161 70.309 408.097 68.578C408.097 66.846 408.065 64.602 408.001 61.845C407.937 59.088 407.84 55.946 407.712 52.419C407.584 48.828 407.392 45.109 407.135 41.262C406.943 37.415 406.654 33.536 406.269 29.624C405.949 25.713 405.532 22.026 405.019 18.563C404.57 15.101 404.025 11.991 403.384 9.23401C402.807 6.41301 402.102 4.2 401.268 2.597C407.744 3.751 413.643 4.52101 418.965 4.90601C424.287 5.29001 429.032 5.483 433.2 5.483C436.022 5.483 438.522 5.41901 440.702 5.29001C442.947 5.16201 444.806 5.03401 446.281 4.90601C448.012 4.71301 449.551 4.52101 450.898 4.32901C453.655 17.922 456.797 30.522 460.323 42.128C463.85 53.734 467.826 64.506 472.25 74.445V70.501C472.057 60.05 471.705 50.303 471.192 41.262C470.935 37.415 470.647 33.536 470.326 29.624C470.006 25.713 469.589 22.026 469.076 18.563C468.627 15.101 468.082 11.991 467.441 9.23401C466.864 6.41301 466.158 4.2 465.325 2.597C471.737 3.751 477.636 4.52101 483.022 4.90601C488.472 5.29001 493.281 5.483 497.449 5.483C500.271 5.483 502.771 5.41901 504.951 5.29001C507.196 5.16201 509.055 5.03401 510.53 4.90601C512.261 4.71301 513.8 4.52101 515.147 4.32901C514.377 7.91901 513.704 11.927 513.127 16.351C512.55 20.776 512.037 25.488 511.588 30.49C511.139 35.491 510.786 40.749 510.53 46.264C510.338 51.778 510.241 57.453 510.241 63.288C510.241 69.892 510.402 76.625 510.722 83.486C511.043 90.283 511.556 97.079 512.261 103.876C513.031 110.609 513.96 117.245 515.051 123.786C516.205 130.262 517.551 136.482 519.09 142.445C517.936 142.317 516.557 142.188 514.954 142.06C513.608 141.932 511.973 141.836 510.049 141.772C508.125 141.708 505.945 141.675 503.509 141.675C498.892 141.675 493.57 141.9 487.543 142.349C481.515 142.798 475.039 143.663 468.114 144.946C468.114 138.341 467.569 131.897 466.479 125.613C465.453 119.265 463.978 113.045 462.055 106.954C460.131 100.798 457.823 94.771 455.13 88.872C452.437 82.973 449.455 77.138 446.185 71.367C446.249 77.394 446.473 83.486 446.858 89.641C447.307 95.797 447.884 101.888 448.589 107.916C449.359 113.943 450.256 119.874 451.282 125.709C452.372 131.48 453.623 137.059 455.033 142.445ZM618.445 144.369C615.111 143.727 611.681 143.246 608.154 142.926C604.691 142.541 601.005 142.253 597.093 142.06C593.246 141.868 589.11 141.772 584.686 141.772C580.326 141.708 575.581 141.675 570.451 141.675C568.014 141.675 565.097 141.708 561.698 141.772C558.364 141.836 554.741 141.996 550.83 142.253C546.983 142.509 543.007 142.862 538.903 143.311C534.8 143.824 530.792 144.465 526.881 145.234C528.291 142.349 529.51 138.726 530.536 134.366C531.562 129.941 532.395 125.261 533.036 120.323C533.742 115.386 534.287 110.352 534.672 105.223C535.056 100.093 535.345 95.316 535.537 90.892C535.73 86.467 535.826 82.652 535.826 79.446C535.89 76.176 535.922 73.932 535.922 72.713C535.922 72.457 535.89 71.463 535.826 69.732C535.826 68.001 535.794 65.756 535.73 62.999C535.665 60.242 535.569 57.1 535.441 53.573C535.313 49.983 535.12 46.264 534.864 42.416C534.672 38.569 534.383 34.69 533.998 30.778C533.678 26.867 533.261 23.18 532.748 19.718C532.299 16.191 531.754 13.049 531.113 10.292C530.536 7.47101 529.83 5.22601 528.997 3.55901C535.281 4.45701 541.468 5.13001 547.56 5.57901C553.651 5.96401 559.55 6.15601 565.257 6.15601C572.246 6.15601 578.787 5.96401 584.878 5.57901C590.97 5.19401 596.292 4.74501 600.844 4.23201C606.166 3.65501 611.007 2.982 615.368 2.213V47.322C611.649 43.859 608.09 41.198 604.691 39.339C601.293 37.479 598.279 36.1 595.65 35.203C592.573 34.177 589.687 33.6 586.994 33.472C583.788 33.472 581.159 33.888 579.107 34.722C577.12 35.491 575.549 36.517 574.394 37.8C573.304 39.018 572.567 40.429 572.182 42.032C571.797 43.571 571.605 45.142 571.605 46.745C571.605 48.412 571.83 50.079 572.278 51.746C572.791 53.413 573.561 54.92 574.587 56.266C575.613 57.613 576.927 58.735 578.53 59.633C580.197 60.466 582.153 60.883 584.397 60.883C586.257 60.883 587.956 60.466 589.495 59.633C591.034 58.735 592.348 57.741 593.438 56.651C594.721 55.433 595.907 54.022 596.997 52.419V91.565C595.971 89.128 594.753 87.205 593.342 85.794C591.996 84.383 590.649 83.358 589.302 82.716C588.02 82.011 586.834 81.594 585.744 81.466C584.718 81.274 584.013 81.177 583.628 81.177C579.46 81.177 576.35 82.46 574.298 85.025C572.246 87.59 571.22 90.892 571.22 94.931C571.22 97.881 571.541 100.382 572.182 102.433C572.888 104.485 573.785 106.153 574.875 107.435C576.029 108.717 577.344 109.647 578.819 110.224C580.358 110.801 581.961 111.09 583.628 111.09C586.193 111.09 588.95 110.513 591.899 109.359C594.849 108.204 597.67 106.665 600.363 104.742C603.121 102.818 605.621 100.638 607.865 98.202C610.174 95.701 612.001 93.168 613.348 90.603L618.445 144.369ZM759.732 41.166C759.732 44.436 759.159 47.77 758.004 51.169C756.85 54.503 755.183 57.549 753.003 60.306C750.887 62.999 748.29 65.211 745.212 66.943C742.135 68.674 738.64 69.539 734.729 69.539C731.266 69.539 728.284 68.962 725.784 67.808C723.347 66.59 721.327 64.987 719.724 62.999C718.185 61.011 717.031 58.767 716.262 56.266C715.492 53.766 715.108 51.169 715.108 48.476C715.108 45.783 715.428 43.186 716.069 40.685C716.775 38.12 717.833 35.844 719.243 33.856C719.628 35.203 720.141 36.261 720.782 37.03C721.423 37.736 722.097 38.249 722.802 38.569C723.572 38.954 724.405 39.178 725.303 39.242C727.355 39.242 728.797 38.697 729.631 37.607C730.529 36.517 730.977 35.267 730.977 33.856C730.977 33.215 730.849 32.574 730.593 31.933C730.336 31.227 729.919 30.586 729.342 30.009C728.829 29.432 728.124 28.951 727.226 28.566C726.329 28.182 725.239 27.989 723.956 27.989C723.251 27.989 722.225 28.085 720.878 28.278C719.596 28.47 718.153 28.983 716.55 29.817C714.947 30.586 713.312 31.772 711.645 33.375C709.978 34.978 708.439 37.158 707.028 39.916C705.682 42.673 704.56 46.103 703.662 50.207C702.828 54.311 702.412 59.312 702.412 65.211C702.412 69.251 702.796 72.778 703.566 75.791C704.399 78.741 705.457 81.274 706.74 83.39C708.022 85.506 709.497 87.237 711.164 88.583C712.831 89.93 714.53 90.988 716.262 91.757C717.993 92.527 719.66 93.072 721.263 93.392C722.93 93.649 724.405 93.777 725.688 93.777C727.355 93.777 729.439 93.489 731.939 92.912C734.504 92.27 737.037 91.148 739.538 89.545C742.038 87.942 744.283 85.73 746.27 82.909C748.322 80.087 749.733 76.432 750.502 71.944C752.747 75.086 754.446 78.837 755.6 83.197C756.818 87.557 757.427 92.142 757.427 96.951C757.427 103.491 756.241 109.839 753.869 115.995C751.56 122.087 748.226 127.505 743.866 132.25C739.57 136.995 734.344 140.778 728.188 143.599C722.033 146.485 715.172 147.927 707.605 147.927C702.027 147.927 696.865 147.03 692.12 145.234C687.375 143.503 683.047 141.066 679.136 137.924C675.224 134.782 671.794 131.096 668.844 126.864C665.895 122.567 663.394 117.919 661.342 112.917C659.29 107.916 657.751 102.658 656.726 97.144C655.7 91.565 655.187 85.922 655.187 80.216C655.187 73.932 655.86 67.616 657.206 61.268C658.553 54.856 660.477 48.7 662.977 42.801C665.542 36.902 668.62 31.388 672.211 26.258C675.866 21.064 680.001 16.576 684.618 12.793C689.235 8.945 694.3 5.93201 699.815 3.75101C705.329 1.50701 711.196 0.38501 717.416 0.38501C723.059 0.38501 728.028 1.058 732.324 2.405C736.62 3.687 740.307 5.45101 743.385 7.69501C746.527 9.87501 749.156 12.376 751.272 15.197C753.388 18.018 755.055 20.936 756.273 23.95C757.556 26.963 758.453 29.977 758.966 32.991C759.479 35.94 759.732 38.665 759.732 41.166ZM878.332 144.176C874.352 143.663 870.502 143.311 866.782 143.118C863.132 142.926 859.412 142.83 855.632 142.83C845.432 142.83 834.982 143.824 824.272 145.811C824.662 144.272 825.072 142.926 825.522 141.772C826.032 140.553 826.482 139.239 826.872 137.828C827.252 136.353 827.572 134.654 827.832 132.731C828.092 130.807 828.212 128.338 828.212 125.325C828.212 122.247 827.992 119.329 827.542 116.572C827.092 113.751 826.422 111.282 825.522 109.166C824.622 106.986 823.502 105.255 822.162 103.972C820.872 102.69 819.372 102.049 817.632 102.049C815.712 102.049 814.082 102.626 812.732 103.78C811.452 104.934 810.392 106.505 809.562 108.493C808.792 110.481 808.212 112.757 807.822 115.322C807.502 117.887 807.342 120.612 807.342 123.497C807.342 126.383 807.502 128.883 807.822 130.999C808.212 133.051 808.632 134.847 809.072 136.385C809.592 137.924 810.072 139.303 810.522 140.521C810.972 141.675 811.292 142.83 811.482 143.984C807.052 143.471 802.692 143.086 798.402 142.83C794.172 142.573 789.932 142.445 785.702 142.445C781.472 142.445 777.212 142.573 772.912 142.83C768.682 143.086 764.292 143.471 759.732 143.984C763.712 132.442 767.172 120.996 770.122 109.647C773.132 98.298 775.702 86.884 777.822 75.407C779.932 63.929 781.632 52.323 782.912 40.589C784.262 28.855 785.252 16.832 785.902 4.521C790.642 5.162 795.832 5.643 801.482 5.964C807.182 6.22 813.022 6.34801 818.982 6.34801C824.052 6.34801 828.952 6.22 833.702 5.964C838.512 5.707 842.932 5.16201 846.972 4.32901C847.422 16.576 848.572 28.63 850.432 40.493C852.292 52.355 854.602 64.121 857.362 75.791C860.182 87.397 863.392 98.907 866.982 110.32C870.572 121.67 874.352 132.955 878.332 144.176ZM824.462 69.539C824.342 68.321 823.952 66.526 823.312 64.153C822.732 62.101 821.872 59.408 820.712 56.074C819.562 52.676 817.862 48.315 815.622 42.993C815.102 46.328 814.522 49.309 813.882 51.938C813.242 54.503 812.632 56.844 812.062 58.96C811.482 61.011 810.972 62.903 810.522 64.634C810.132 66.366 809.942 68.001 809.942 69.539C809.942 72.746 810.682 75.246 812.152 77.042C813.692 78.773 815.392 79.639 817.252 79.639C819.242 79.639 820.912 78.677 822.252 76.753C823.602 74.829 824.342 72.425 824.462 69.539ZM977.202 33.279C977.202 36.485 976.592 39.403 975.372 42.032C974.222 44.596 972.582 46.809 970.472 48.668C968.352 50.528 965.852 51.97 962.962 52.996C960.142 54.022 957.072 54.535 953.732 54.535C950.082 54.535 946.932 54.086 944.312 53.189C941.742 52.291 939.562 51.169 937.772 49.822C936.032 48.412 934.662 46.873 933.632 45.206C932.602 43.474 931.802 41.807 931.222 40.204C930.712 38.601 930.362 37.126 930.172 35.78C930.042 34.433 929.972 33.407 929.972 32.702C930.742 33.984 931.642 34.818 932.672 35.203C933.692 35.523 934.562 35.684 935.262 35.684C937.062 35.684 938.312 35.203 939.022 34.241C939.792 33.279 940.172 32.253 940.172 31.163C940.172 30.458 940.012 29.72 939.692 28.951C939.432 28.182 938.922 27.476 938.152 26.835C937.442 26.13 936.452 25.553 935.172 25.104C933.952 24.655 932.412 24.43 930.552 24.43C929.272 24.43 927.952 24.687 926.612 25.2C925.262 25.649 924.012 26.386 922.862 27.412C921.772 28.374 920.872 29.592 920.162 31.067C919.462 32.542 919.112 34.273 919.112 36.261C919.112 38.184 919.492 40.108 920.262 42.032C921.092 43.891 922.182 45.654 923.532 47.322C924.942 48.989 926.582 50.496 928.442 51.842C930.362 53.189 932.442 54.311 934.692 55.208C938.212 56.683 941.842 58.126 945.562 59.537C949.342 60.947 952.992 62.486 956.522 64.153C960.052 65.82 963.352 67.744 966.432 69.924C969.572 72.04 972.292 74.573 974.602 77.523C976.982 80.472 978.832 83.935 980.182 87.91C981.592 91.821 982.302 96.406 982.302 101.664C982.302 109.166 980.762 116.027 977.682 122.247C974.672 128.402 970.602 133.692 965.472 138.117C960.402 142.477 954.502 145.843 947.772 148.216C941.102 150.652 934.112 151.871 926.802 151.871C920.202 151.871 913.912 150.877 907.952 148.889C901.992 146.965 896.762 144.304 892.272 140.906C887.782 137.508 884.192 133.532 881.502 128.98C878.872 124.363 877.562 119.393 877.562 114.071C877.562 110.16 878.202 106.73 879.482 103.78C880.762 100.83 882.532 98.394 884.772 96.47C887.082 94.483 889.742 93.008 892.752 92.046C895.832 91.084 899.102 90.603 902.562 90.603C905.262 90.603 907.882 90.892 910.452 91.469C913.082 92.046 915.522 92.912 917.762 94.066C920.072 95.156 922.122 96.502 923.922 98.105C925.772 99.708 927.252 101.536 928.342 103.588C926.992 103.203 925.812 103.011 924.782 103.011C923.052 103.011 921.672 103.524 920.652 104.549C919.622 105.575 919.112 107.114 919.112 109.166C919.112 110.256 919.362 111.282 919.882 112.244C920.392 113.142 921.032 113.943 921.802 114.649C922.632 115.354 923.562 115.899 924.592 116.284C925.682 116.668 926.802 116.861 927.952 116.861C929.242 116.861 930.422 116.604 931.512 116.091C932.602 115.514 933.572 114.777 934.402 113.879C935.232 112.981 935.872 111.988 936.322 110.897C936.772 109.807 937.002 108.685 937.002 107.531C937.002 105.287 936.292 103.011 934.882 100.702C933.532 98.394 931.552 96.342 928.922 94.547C923.922 91.469 919.202 88.808 914.782 86.564C910.352 84.319 906.282 82.203 902.562 80.216C898.842 78.164 895.482 76.112 892.462 74.06C889.512 72.008 886.982 69.636 884.872 66.943C882.812 64.25 881.242 61.108 880.152 57.517C879.062 53.862 878.522 49.47 878.522 44.34C878.522 38.184 879.702 32.414 882.082 27.027C884.452 21.641 887.882 16.96 892.372 12.985C896.922 8.945 902.472 5.771 909.012 3.463C915.552 1.155 922.992 0 931.322 0C939.722 0 946.842 1.026 952.672 3.078C958.512 5.066 963.222 7.663 966.812 10.869C970.472 14.075 973.102 17.666 974.702 21.641C976.372 25.553 977.202 29.432 977.202 33.279ZM1045.3 142.445C1043.95 142.317 1042.44 142.188 1040.78 142.06C1039.3 141.932 1037.54 141.836 1035.49 141.772C1033.43 141.708 1031.06 141.675 1028.37 141.675C1023.17 141.675 1017.15 141.9 1010.29 142.349C1003.43 142.798 995.992 143.663 987.972 144.946C989.382 142.06 990.602 138.405 991.632 133.981C992.652 129.557 993.492 124.844 994.132 119.842C994.832 114.777 995.382 109.647 995.762 104.453C996.152 99.26 996.442 94.418 996.632 89.93C996.822 85.441 996.922 81.562 996.922 78.292C996.982 75.022 997.012 72.778 997.012 71.559C997.012 71.303 996.982 70.309 996.922 68.578C996.922 66.846 996.882 64.602 996.822 61.845C996.762 59.088 996.662 55.946 996.532 52.419C996.402 48.828 996.212 45.109 995.952 41.262C995.762 37.415 995.472 33.536 995.092 29.624C994.772 25.713 994.352 22.026 993.842 18.563C993.392 15.101 992.852 11.991 992.202 9.23401C991.632 6.41301 990.922 4.2 990.092 2.597C996.562 3.751 1002.5 4.52101 1007.88 4.90601C1013.33 5.29001 1018.24 5.483 1022.6 5.483C1025.48 5.483 1028.08 5.41901 1030.39 5.29001C1032.7 5.16201 1034.65 5.03401 1036.25 4.90601C1038.11 4.71301 1039.75 4.52101 1041.16 4.32901C1040.39 7.91901 1039.72 11.927 1039.14 16.351C1038.56 20.711 1038.05 25.392 1037.6 30.394C1037.15 35.331 1036.8 40.525 1036.54 45.975C1036.35 51.425 1036.25 57.036 1036.25 62.807C1036.25 69.475 1036.42 76.272 1036.74 83.197C1037.06 90.058 1037.57 96.887 1038.27 103.684C1039.04 110.481 1039.97 117.149 1041.06 123.69C1042.22 130.23 1043.63 136.482 1045.3 142.445ZM1108.49 142.445C1107.27 142.317 1105.83 142.188 1104.16 142.06C1102.75 141.932 1101.05 141.836 1099.06 141.772C1097.07 141.708 1094.8 141.675 1092.23 141.675C1087.23 141.675 1081.36 141.9 1074.63 142.349C1067.96 142.798 1060.62 143.663 1052.61 144.946C1054.02 142.06 1055.23 138.405 1056.26 133.981C1057.29 129.557 1058.12 124.844 1058.76 119.842C1059.47 114.777 1060.01 109.647 1060.4 104.453C1060.78 99.26 1061.07 94.418 1061.26 89.93C1061.45 85.441 1061.55 81.562 1061.55 78.292C1061.61 75.022 1061.65 72.778 1061.65 71.559C1061.65 71.303 1061.61 70.309 1061.55 68.578C1061.55 66.846 1061.52 64.602 1061.45 61.845C1061.39 59.088 1061.29 55.946 1061.17 52.419C1061.04 48.828 1060.85 45.109 1060.59 41.262C1060.4 37.415 1060.11 33.536 1059.72 29.624C1059.4 25.713 1058.99 22.026 1058.47 18.563C1058.02 15.101 1057.48 11.991 1056.84 9.23401C1056.26 6.41301 1055.56 4.2 1054.72 2.597C1061.2 3.751 1067.1 4.52101 1072.42 4.90601C1077.74 5.29001 1082.49 5.483 1086.65 5.483C1089.48 5.483 1091.98 5.41901 1094.16 5.29001C1096.4 5.16201 1098.26 5.03401 1099.73 4.90601C1101.47 4.71301 1103 4.52101 1104.35 4.32901C1107.11 17.922 1110.25 30.522 1113.78 42.128C1117.3 53.734 1121.28 64.506 1125.7 74.445V70.501C1125.51 60.05 1125.16 50.303 1124.65 41.262C1124.39 37.415 1124.1 33.536 1123.78 29.624C1123.46 25.713 1123.04 22.026 1122.53 18.563C1122.08 15.101 1121.54 11.991 1120.89 9.23401C1120.32 6.41301 1119.61 4.2 1118.78 2.597C1125.19 3.751 1131.09 4.52101 1136.48 4.90601C1141.93 5.29001 1146.74 5.483 1150.9 5.483C1153.72 5.483 1156.23 5.41901 1158.41 5.29001C1160.65 5.16201 1162.51 5.03401 1163.98 4.90601C1165.72 4.71301 1167.25 4.52101 1168.6 4.32901C1167.83 7.91901 1167.16 11.927 1166.58 16.351C1166 20.776 1165.49 25.488 1165.04 30.49C1164.59 35.491 1164.24 40.749 1163.98 46.264C1163.79 51.778 1163.7 57.453 1163.7 63.288C1163.7 69.892 1163.86 76.625 1164.18 83.486C1164.5 90.283 1165.01 97.079 1165.72 103.876C1166.48 110.609 1167.41 117.245 1168.5 123.786C1169.66 130.262 1171.01 136.482 1172.54 142.445C1171.39 142.317 1170.01 142.188 1168.41 142.06C1167.06 141.932 1165.43 141.836 1163.5 141.772C1161.58 141.708 1159.4 141.675 1156.96 141.675C1152.35 141.675 1147.02 141.9 1141 142.349C1134.97 142.798 1128.49 143.663 1121.57 144.946C1121.57 138.341 1121.02 131.897 1119.93 125.613C1118.91 119.265 1117.43 113.045 1115.51 106.954C1113.58 100.798 1111.28 94.771 1108.58 88.872C1105.89 82.973 1102.91 77.138 1099.64 71.367C1099.7 77.394 1099.93 83.486 1100.31 89.641C1100.76 95.797 1101.34 101.888 1102.04 107.916C1102.81 113.943 1103.71 119.874 1104.74 125.709C1105.83 131.48 1107.08 137.059 1108.49 142.445ZM1288.25 78.581C1288.25 88.327 1287.16 97.496 1284.98 106.088C1282.8 114.616 1279.5 122.087 1275.07 128.499C1270.65 134.847 1265.04 139.848 1258.24 143.503C1251.51 147.222 1243.53 149.081 1234.29 149.081C1225.12 149.081 1217.14 147.222 1210.34 143.503C1203.61 139.848 1198 134.847 1193.51 128.499C1189.09 122.087 1185.78 114.616 1183.6 106.088C1181.42 97.496 1180.33 88.327 1180.33 78.581C1180.33 71.399 1181.01 64.474 1182.35 57.805C1183.7 51.137 1185.56 44.917 1187.93 39.146C1190.31 33.375 1193.16 28.117 1196.49 23.372C1199.83 18.628 1203.48 14.588 1207.46 11.254C1211.5 7.855 1215.76 5.226 1220.25 3.367C1224.8 1.507 1229.48 0.578003 1234.29 0.578003C1242.37 0.578003 1249.71 2.565 1256.32 6.541C1262.99 10.452 1268.66 15.902 1273.34 22.892C1278.09 29.881 1281.74 38.12 1284.31 47.61C1286.94 57.1 1288.25 67.424 1288.25 78.581ZM1248.91 70.309C1248.91 65.5 1248.53 61.076 1247.76 57.036C1246.99 52.932 1245.93 49.406 1244.58 46.456C1243.3 43.442 1241.76 41.102 1239.97 39.435C1238.17 37.703 1236.28 36.838 1234.29 36.838C1232.37 36.838 1230.54 37.864 1228.81 39.916C1227.08 41.903 1225.54 44.5 1224.19 47.706C1222.91 50.912 1221.88 54.503 1221.12 58.479C1220.35 62.454 1219.96 66.398 1219.96 70.309C1219.96 74.092 1220.28 77.619 1220.92 80.889C1221.63 84.095 1222.59 86.884 1223.81 89.257C1225.03 91.629 1226.5 93.521 1228.23 94.931C1230.03 96.278 1232.05 96.951 1234.29 96.951C1236.47 96.951 1238.46 96.278 1240.26 94.931C1242.12 93.521 1243.65 91.629 1244.87 89.257C1246.15 86.884 1247.15 84.095 1247.85 80.889C1248.56 77.619 1248.91 74.092 1248.91 70.309Z" fill="url(#paint0_linear_2125_352)"/>
<defs>
<linearGradient id="paint0_linear_2125_352" x1="406.089" y1="1.40801" x2="643.632" y2="176.821" gradientUnits="userSpaceOnUse">
<stop stop-color="#60E8D7"/>
<stop offset="1" stop-color="#AFF900"/>
</linearGradient>
</defs>
</svg>
