<svg width="1527" height="89" viewBox="0 0 1527 89" fill="none" xmlns="http://www.w3.org/2000/svg">
<path d="M26.106 46.572H9.88306V35.357H26.106C28.5 35.357 30.421 34.959 31.869 34.161C33.346 33.363 34.4251 32.269 35.1041 30.881C35.8141 29.462 36.1681 27.867 36.1681 26.094C36.1681 24.261 35.8141 22.562 35.1041 20.996C34.4251 19.4 33.346 18.115 31.869 17.14C30.421 16.165 28.5 15.677 26.106 15.677H15.1141V69H0.664062V4.46301H26.106C31.248 4.46301 35.6511 5.394 39.3151 7.255C43.0091 9.117 45.8311 11.673 47.7811 14.924C49.7611 18.145 50.7511 21.838 50.7511 26.005C50.7511 30.171 49.7611 33.791 47.7811 36.864C45.8311 39.938 43.0091 42.331 39.3151 44.045C35.6511 45.729 31.248 46.572 26.106 46.572ZM85.6561 0.916992V69H71.7821V0.916992H85.6561ZM133.282 57.564V36.997C133.282 35.55 133.06 34.308 132.617 33.274C132.174 32.24 131.48 31.427 130.534 30.836C129.588 30.245 128.362 29.95 126.855 29.95C125.584 29.95 124.476 30.171 123.531 30.615C122.615 31.058 121.905 31.693 121.403 32.521C120.93 33.348 120.694 34.368 120.694 35.579H106.864C106.864 33.422 107.352 31.413 108.327 29.551C109.302 27.689 110.691 26.049 112.494 24.631C114.326 23.212 116.513 22.119 119.054 21.351C121.595 20.553 124.447 20.154 127.608 20.154C131.361 20.154 134.7 20.789 137.626 22.06C140.581 23.301 142.915 25.177 144.629 27.689C146.343 30.171 147.2 33.304 147.2 37.086V57.165C147.2 60.061 147.363 62.336 147.688 63.991C148.042 65.617 148.545 67.035 149.195 68.246V69H135.232C134.582 67.611 134.095 65.897 133.77 63.858C133.445 61.79 133.282 59.692 133.282 57.564ZM135.011 39.746L135.099 47.369H128.229C126.692 47.369 125.363 47.562 124.24 47.946C123.146 48.33 122.26 48.862 121.58 49.541C120.901 50.191 120.398 50.96 120.073 51.846C119.778 52.703 119.63 53.649 119.63 54.683C119.63 55.658 119.866 56.545 120.339 57.343C120.812 58.111 121.462 58.717 122.29 59.16C123.117 59.603 124.077 59.825 125.171 59.825C126.973 59.825 128.51 59.47 129.78 58.761C131.081 58.052 132.085 57.195 132.795 56.19C133.504 55.156 133.858 54.195 133.858 53.309L137.183 59.071C136.651 60.253 136.001 61.48 135.232 62.75C134.464 63.991 133.489 65.159 132.307 66.252C131.125 67.316 129.692 68.187 128.007 68.867C126.353 69.547 124.358 69.886 122.024 69.886C119.009 69.886 116.276 69.281 113.823 68.069C111.371 66.828 109.406 65.129 107.928 62.972C106.48 60.815 105.756 58.332 105.756 55.525C105.756 53.014 106.214 50.782 107.13 48.832C108.046 46.882 109.421 45.227 111.253 43.868C113.114 42.509 115.449 41.489 118.256 40.809C121.063 40.1 124.343 39.746 128.096 39.746H135.011ZM182.282 63.459L194.826 21.041H209.719L190.438 76.181C190.024 77.392 189.463 78.692 188.754 80.081C188.074 81.47 187.143 82.8 185.961 84.07C184.809 85.341 183.331 86.375 181.529 87.173C179.726 87.971 177.51 88.37 174.88 88.37C173.55 88.37 172.516 88.296 171.777 88.148C171.068 88.03 170.123 87.823 168.941 87.528L168.896 77.466C169.28 77.466 169.62 77.466 169.916 77.466C170.241 77.496 170.566 77.51 170.891 77.51C172.546 77.51 173.875 77.333 174.88 76.978C175.914 76.624 176.712 76.092 177.274 75.383C177.865 74.703 178.337 73.831 178.692 72.768L182.282 63.459ZM178.071 21.041L188 55.171L189.685 69.842L180.332 70.33L163.178 21.041H178.071ZM220.201 62.44C220.201 60.431 220.911 58.746 222.329 57.387C223.777 56.028 225.653 55.348 227.958 55.348C230.293 55.348 232.154 56.028 233.543 57.387C234.962 58.746 235.671 60.431 235.671 62.44C235.671 64.42 234.962 66.089 233.543 67.449C232.154 68.808 230.293 69.488 227.958 69.488C225.653 69.488 223.777 68.808 222.329 67.449C220.911 66.089 220.201 64.42 220.201 62.44ZM309.47 60.933L322.324 4.46301H329.726L332.652 11.466L318.955 69H310.844L309.47 60.933ZM304.461 4.46301L315.232 61.199L313.37 69H304.151L290.144 4.46301H304.461ZM341.827 60.889L352.465 4.46301H366.738L352.731 69H343.6L341.827 60.889ZM334.558 4.46301L347.589 61.243L346.082 69H338.015L324.097 11.422L327.155 4.46301H334.558ZM399.515 21.041V69H385.641V21.041H399.515ZM384.799 8.63C384.799 6.62 385.508 4.97998 386.927 3.70898C388.345 2.40898 390.207 1.75897 392.512 1.75897C394.816 1.75897 396.678 2.40898 398.096 3.70898C399.544 4.97998 400.268 6.62 400.268 8.63C400.268 10.609 399.544 12.249 398.096 13.55C396.678 14.82 394.816 15.456 392.512 15.456C390.207 15.456 388.345 14.82 386.927 13.55C385.508 12.249 384.799 10.609 384.799 8.63ZM435.306 31.28V69H421.433V21.041H434.464L435.306 31.28ZM433.489 43.336L430.032 43.425C430.032 39.819 430.475 36.584 431.361 33.717C432.248 30.851 433.504 28.413 435.129 26.404C436.784 24.365 438.749 22.814 441.024 21.75C443.329 20.686 445.87 20.154 448.648 20.154C450.894 20.154 452.948 20.479 454.809 21.129C456.671 21.779 458.267 22.828 459.596 24.276C460.956 25.695 461.99 27.586 462.699 29.95C463.408 32.284 463.763 35.165 463.763 38.593V69H449.845V38.549C449.845 36.539 449.564 34.988 449.003 33.895C448.441 32.801 447.614 32.033 446.52 31.59C445.457 31.147 444.157 30.925 442.62 30.925C440.995 30.925 439.606 31.25 438.453 31.9C437.301 32.521 436.355 33.392 435.617 34.515C434.878 35.638 434.331 36.953 433.977 38.46C433.652 39.967 433.489 41.592 433.489 43.336ZM485.814 62.44C485.814 60.431 486.523 58.746 487.941 57.387C489.389 56.028 491.266 55.348 493.57 55.348C495.905 55.348 497.767 56.028 499.155 57.387C500.574 58.746 501.283 60.431 501.283 62.44C501.283 64.42 500.574 66.089 499.155 67.449C497.767 68.808 495.905 69.488 493.57 69.488C491.266 69.488 489.389 68.808 487.941 67.449C486.523 66.089 485.814 64.42 485.814 62.44ZM575.082 60.933L587.936 4.46301H595.339L598.264 11.466L584.568 69H576.456L575.082 60.933ZM570.073 4.46301L580.844 61.199L578.983 69H569.763L555.756 4.46301H570.073ZM607.439 60.889L618.077 4.46301H632.35L618.343 69H609.212L607.439 60.889ZM600.17 4.46301L613.201 61.243L611.694 69H603.627L589.709 11.422L592.768 4.46301H600.17ZM665.127 21.041V69H651.253V21.041H665.127ZM650.411 8.63C650.411 6.62 651.12 4.97998 652.539 3.70898C653.957 2.40898 655.819 1.75897 658.124 1.75897C660.429 1.75897 662.29 2.40898 663.709 3.70898C665.157 4.97998 665.881 6.62 665.881 8.63C665.881 10.609 665.157 12.249 663.709 13.55C662.29 14.82 660.429 15.456 658.124 15.456C655.819 15.456 653.957 14.82 652.539 13.55C651.12 12.249 650.411 10.609 650.411 8.63ZM711.734 21.041V30.748H683.277V21.041H711.734ZM689.793 9.16101H703.667V53.974C703.667 55.304 703.829 56.323 704.154 57.032C704.479 57.741 705.011 58.244 705.75 58.539C706.489 58.805 707.434 58.938 708.587 58.938C709.414 58.938 710.123 58.909 710.714 58.85C711.305 58.791 711.852 58.717 712.354 58.628V68.645C711.172 69.03 709.916 69.325 708.587 69.532C707.257 69.768 705.809 69.886 704.243 69.886C701.258 69.886 698.673 69.399 696.486 68.424C694.329 67.449 692.674 65.912 691.522 63.814C690.369 61.686 689.793 58.923 689.793 55.525V9.16101ZM744.157 0.916992V69H730.327V0.916992H744.157ZM742.339 43.336L738.882 43.425C738.882 40.056 739.296 36.968 740.123 34.161C740.98 31.324 742.192 28.856 743.758 26.758C745.324 24.66 747.2 23.035 749.387 21.883C751.603 20.73 754.041 20.154 756.701 20.154C759.06 20.154 761.22 20.494 763.17 21.173C765.12 21.853 766.81 22.932 768.22 24.409C769.64 25.887 770.74 27.822 771.51 30.216C772.27 32.609 772.66 35.52 772.66 38.948V69H758.739V38.859C758.739 36.82 758.444 35.224 757.853 34.072C757.292 32.92 756.464 32.107 755.371 31.634C754.307 31.161 753.007 30.925 751.47 30.925C749.668 30.925 748.175 31.25 746.993 31.9C745.811 32.521 744.881 33.392 744.201 34.515C743.521 35.638 743.034 36.953 742.738 38.46C742.472 39.967 742.339 41.592 742.339 43.336ZM821.88 58.273V0.916992H835.8V69H823.3L821.88 58.273ZM792 45.596V44.666C792 41.031 792.4 37.721 793.2 34.737C794.03 31.723 795.23 29.137 796.79 26.98C798.39 24.793 800.35 23.109 802.69 21.927C805.02 20.745 807.7 20.154 810.71 20.154C813.49 20.154 815.91 20.775 817.98 22.016C820.05 23.227 821.81 24.941 823.25 27.157C824.73 29.344 825.93 31.93 826.84 34.914C827.76 37.869 828.45 41.075 828.93 44.533V46.128C828.48 49.438 827.79 52.526 826.84 55.392C825.93 58.259 824.73 60.785 823.25 62.972C821.81 65.129 820.03 66.828 817.93 68.069C815.87 69.281 813.43 69.886 810.62 69.886C807.61 69.886 804.93 69.281 802.6 68.069C800.29 66.858 798.36 65.159 796.79 62.972C795.23 60.785 794.03 58.214 793.2 55.259C792.4 52.304 792 49.083 792 45.596ZM805.83 44.666V45.596C805.83 47.488 805.97 49.246 806.23 50.871C806.53 52.496 807 53.93 807.65 55.171C808.3 56.412 809.16 57.387 810.22 58.096C811.29 58.776 812.59 59.116 814.12 59.116C816.19 59.116 817.89 58.643 819.22 57.697C820.55 56.722 821.55 55.377 822.23 53.664C822.91 51.95 823.27 49.955 823.3 47.68V43.026C823.3 41.134 823.11 39.435 822.72 37.928C822.34 36.421 821.76 35.151 820.99 34.116C820.25 33.082 819.32 32.299 818.2 31.767C817.08 31.206 815.75 30.925 814.21 30.925C812.7 30.925 811.42 31.28 810.35 31.989C809.29 32.668 808.42 33.629 807.74 34.87C807.09 36.111 806.6 37.574 806.28 39.258C805.98 40.913 805.83 42.715 805.83 44.666ZM871.15 32.21V69H857.32V21.041H870.3L871.15 32.21ZM885.46 20.686L885.24 33.584C884.65 33.496 883.88 33.422 882.94 33.363C881.99 33.274 881.18 33.23 880.5 33.23C878.73 33.23 877.19 33.451 875.89 33.895C874.62 34.308 873.55 34.929 872.7 35.756C871.87 36.584 871.25 37.618 870.84 38.859C870.42 40.071 870.21 41.474 870.21 43.07L867.6 41.785C867.6 38.623 867.91 35.727 868.53 33.097C869.15 30.467 870.05 28.192 871.23 26.271C872.42 24.321 873.86 22.814 875.58 21.75C877.29 20.686 879.24 20.154 881.43 20.154C882.14 20.154 882.86 20.198 883.6 20.287C884.34 20.376 884.96 20.509 885.46 20.686ZM927.37 57.564V36.997C927.37 35.55 927.15 34.308 926.71 33.274C926.26 32.24 925.57 31.427 924.62 30.836C923.68 30.245 922.45 29.95 920.94 29.95C919.67 29.95 918.56 30.171 917.62 30.615C916.7 31.058 915.99 31.693 915.49 32.521C915.02 33.348 914.78 34.368 914.78 35.579H900.95C900.95 33.422 901.44 31.413 902.42 29.551C903.39 27.689 904.78 26.049 906.58 24.631C908.41 23.212 910.6 22.119 913.14 21.351C915.68 20.553 918.54 20.154 921.7 20.154C925.45 20.154 928.79 20.789 931.71 22.06C934.67 23.301 937 25.177 938.72 27.689C940.43 30.171 941.29 33.304 941.29 37.086V57.165C941.29 60.061 941.45 62.336 941.78 63.991C942.13 65.617 942.63 67.035 943.28 68.246V69H929.32C928.67 67.611 928.18 65.897 927.86 63.858C927.53 61.79 927.37 59.692 927.37 57.564ZM929.1 39.746L929.19 47.369H922.32C920.78 47.369 919.45 47.562 918.33 47.946C917.24 48.33 916.35 48.862 915.67 49.541C914.99 50.191 914.49 50.96 914.16 51.846C913.87 52.703 913.72 53.649 913.72 54.683C913.72 55.658 913.96 56.545 914.43 57.343C914.9 58.111 915.55 58.717 916.38 59.16C917.21 59.603 918.17 59.825 919.26 59.825C921.06 59.825 922.6 59.47 923.87 58.761C925.17 58.052 926.17 57.195 926.88 56.19C927.59 55.156 927.95 54.195 927.95 53.309L931.27 59.071C930.74 60.253 930.09 61.48 929.32 62.75C928.55 63.991 927.58 65.159 926.4 66.252C925.21 67.316 923.78 68.187 922.1 68.867C920.44 69.547 918.45 69.886 916.11 69.886C913.1 69.886 910.36 69.281 907.91 68.069C905.46 66.828 903.49 65.129 902.02 62.972C900.57 60.815 899.84 58.332 899.84 55.525C899.84 53.014 900.3 50.782 901.22 48.832C902.14 46.882 903.51 45.227 905.34 43.868C907.2 42.509 909.54 41.489 912.34 40.809C915.15 40.1 918.43 39.746 922.18 39.746H929.1ZM976.77 55.658L986.17 21.041H994.9L991.93 36.466L982.53 69H975.4L976.77 55.658ZM972.47 21.041L978.76 55.525L979.43 69H970.92L959.13 21.041H972.47ZM1003.41 54.86L1009.66 21.041H1023L1011.3 69H1002.79L1003.41 54.86ZM995.96 21.041L1005.45 55.481L1006.82 69H999.6L990.29 36.51L987.45 21.041H995.96ZM1092.15 4.46301V69H1077.74V4.46301H1092.15ZM1128.91 31.28V69H1115.04V21.041H1128.07L1128.91 31.28ZM1127.09 43.336L1123.64 43.425C1123.64 39.819 1124.08 36.584 1124.97 33.717C1125.85 30.851 1127.11 28.413 1128.73 26.404C1130.39 24.365 1132.35 22.814 1134.63 21.75C1136.94 20.686 1139.48 20.154 1142.25 20.154C1144.5 20.154 1146.55 20.479 1148.42 21.129C1150.28 21.779 1151.87 22.828 1153.2 24.276C1154.56 25.695 1155.6 27.586 1156.3 29.95C1157.01 32.284 1157.37 35.165 1157.37 38.593V69H1143.45V38.549C1143.45 36.539 1143.17 34.988 1142.61 33.895C1142.05 32.801 1141.22 32.033 1140.13 31.59C1139.06 31.147 1137.76 30.925 1136.23 30.925C1134.6 30.925 1133.21 31.25 1132.06 31.9C1130.91 32.521 1129.96 33.392 1129.22 34.515C1128.48 35.638 1127.94 36.953 1127.58 38.46C1127.26 39.967 1127.09 41.592 1127.09 43.336ZM1204.2 55.658C1204.2 54.772 1203.92 53.989 1203.35 53.309C1202.82 52.629 1201.85 52.009 1200.43 51.447C1199.04 50.886 1197.08 50.324 1194.53 49.763C1192.14 49.261 1189.91 48.611 1187.84 47.813C1185.77 46.985 1183.97 45.995 1182.43 44.843C1180.9 43.661 1179.7 42.272 1178.84 40.676C1177.99 39.051 1177.56 37.204 1177.56 35.136C1177.56 33.126 1177.99 31.22 1178.84 29.418C1179.73 27.615 1181 26.02 1182.66 24.631C1184.34 23.242 1186.38 22.149 1188.77 21.351C1191.2 20.553 1193.94 20.154 1197.02 20.154C1201.24 20.154 1204.89 20.819 1207.96 22.149C1211.04 23.449 1213.4 25.281 1215.06 27.645C1216.71 29.979 1217.54 32.654 1217.54 35.668H1203.71C1203.71 34.427 1203.47 33.348 1203 32.432C1202.53 31.516 1201.8 30.807 1200.83 30.304C1199.85 29.773 1198.57 29.507 1196.97 29.507C1195.73 29.507 1194.64 29.728 1193.69 30.171C1192.78 30.585 1192.05 31.161 1191.52 31.9C1191.02 32.639 1190.77 33.496 1190.77 34.471C1190.77 35.151 1190.91 35.771 1191.21 36.333C1191.53 36.864 1192.02 37.367 1192.67 37.84C1193.35 38.283 1194.22 38.682 1195.29 39.036C1196.38 39.391 1197.71 39.731 1199.28 40.056C1202.62 40.676 1205.66 41.548 1208.41 42.671C1211.19 43.794 1213.4 45.345 1215.06 47.325C1216.74 49.305 1217.58 51.92 1217.58 55.171C1217.58 57.298 1217.1 59.249 1216.12 61.022C1215.17 62.795 1213.8 64.346 1212 65.676C1210.2 67.005 1208.04 68.04 1205.53 68.778C1203.02 69.517 1200.18 69.886 1197.02 69.886C1192.5 69.886 1188.67 69.074 1185.54 67.449C1182.4 65.823 1180.04 63.784 1178.44 61.332C1176.88 58.85 1176.1 56.308 1176.1 53.708H1189.08C1189.14 55.304 1189.54 56.604 1190.28 57.609C1191.05 58.613 1192.04 59.352 1193.25 59.825C1194.46 60.268 1195.82 60.49 1197.33 60.49C1198.83 60.49 1200.09 60.283 1201.09 59.869C1202.1 59.455 1202.87 58.894 1203.4 58.185C1203.93 57.446 1204.2 56.604 1204.2 55.658ZM1261.93 21.041V30.748H1233.47V21.041H1261.93ZM1239.99 9.16101H1253.86V53.974C1253.86 55.304 1254.02 56.323 1254.35 57.032C1254.67 57.741 1255.21 58.244 1255.95 58.539C1256.68 58.805 1257.63 58.938 1258.78 58.938C1259.61 58.938 1260.32 58.909 1260.91 58.85C1261.5 58.791 1262.05 58.717 1262.55 58.628V68.645C1261.37 69.03 1260.11 69.325 1258.78 69.532C1257.45 69.768 1256 69.886 1254.44 69.886C1251.45 69.886 1248.87 69.399 1246.68 68.424C1244.52 67.449 1242.87 65.912 1241.72 63.814C1240.56 61.686 1239.99 58.923 1239.99 55.525V9.16101ZM1306.23 57.564V36.997C1306.23 35.55 1306.01 34.308 1305.57 33.274C1305.12 32.24 1304.43 31.427 1303.48 30.836C1302.54 30.245 1301.31 29.95 1299.8 29.95C1298.53 29.95 1297.43 30.171 1296.48 30.615C1295.56 31.058 1294.85 31.693 1294.35 32.521C1293.88 33.348 1293.64 34.368 1293.64 35.579H1279.81C1279.81 33.422 1280.3 31.413 1281.28 29.551C1282.25 27.689 1283.64 26.049 1285.44 24.631C1287.27 23.212 1289.46 22.119 1292 21.351C1294.54 20.553 1297.4 20.154 1300.56 20.154C1304.31 20.154 1307.65 20.789 1310.57 22.06C1313.53 23.301 1315.86 25.177 1317.58 27.689C1319.29 30.171 1320.15 33.304 1320.15 37.086V57.165C1320.15 60.061 1320.31 62.336 1320.64 63.991C1320.99 65.617 1321.49 67.035 1322.14 68.246V69H1308.18C1307.53 67.611 1307.04 65.897 1306.72 63.858C1306.39 61.79 1306.23 59.692 1306.23 57.564ZM1307.96 39.746L1308.05 47.369H1301.18C1299.64 47.369 1298.31 47.562 1297.19 47.946C1296.1 48.33 1295.21 48.862 1294.53 49.541C1293.85 50.191 1293.35 50.96 1293.02 51.846C1292.73 52.703 1292.58 53.649 1292.58 54.683C1292.58 55.658 1292.82 56.545 1293.29 57.343C1293.76 58.111 1294.41 58.717 1295.24 59.16C1296.07 59.603 1297.03 59.825 1298.12 59.825C1299.92 59.825 1301.46 59.47 1302.73 58.761C1304.03 58.052 1305.03 57.195 1305.74 56.19C1306.45 55.156 1306.81 54.195 1306.81 53.309L1310.13 59.071C1309.6 60.253 1308.95 61.48 1308.18 62.75C1307.41 63.991 1306.44 65.159 1305.26 66.252C1304.07 67.316 1302.64 68.187 1300.96 68.867C1299.3 69.547 1297.31 69.886 1294.97 69.886C1291.96 69.886 1289.23 69.281 1286.77 68.069C1284.32 66.828 1282.35 65.129 1280.88 62.972C1279.43 60.815 1278.71 58.332 1278.71 55.525C1278.71 53.014 1279.16 50.782 1280.08 48.832C1281 46.882 1282.37 45.227 1284.2 43.868C1286.06 42.509 1288.4 41.489 1291.2 40.809C1294.01 40.1 1297.29 39.746 1301.05 39.746H1307.96ZM1355.05 31.28V69H1341.18V21.041H1354.21L1355.05 31.28ZM1353.24 43.336L1349.78 43.425C1349.78 39.819 1350.22 36.584 1351.11 33.717C1352 30.851 1353.25 28.413 1354.88 26.404C1356.53 24.365 1358.5 22.814 1360.77 21.75C1363.08 20.686 1365.62 20.154 1368.4 20.154C1370.64 20.154 1372.7 20.479 1374.56 21.129C1376.42 21.779 1378.01 22.828 1379.34 24.276C1380.7 25.695 1381.74 27.586 1382.45 29.95C1383.16 32.284 1383.51 35.165 1383.51 38.593V69H1369.59V38.549C1369.59 36.539 1369.31 34.988 1368.75 33.895C1368.19 32.801 1367.36 32.033 1366.27 31.59C1365.2 31.147 1363.9 30.925 1362.37 30.925C1360.74 30.925 1359.35 31.25 1358.2 31.9C1357.05 32.521 1356.1 33.392 1355.36 34.515C1354.63 35.638 1354.08 36.953 1353.72 38.46C1353.4 39.967 1353.24 41.592 1353.24 43.336ZM1429.19 21.041V30.748H1400.73V21.041H1429.19ZM1407.25 9.16101H1421.12V53.974C1421.12 55.304 1421.28 56.323 1421.61 57.032C1421.93 57.741 1422.46 58.244 1423.2 58.539C1423.94 58.805 1424.89 58.938 1426.04 58.938C1426.87 58.938 1427.58 58.909 1428.17 58.85C1428.76 58.791 1429.3 58.717 1429.81 58.628V68.645C1428.63 69.03 1427.37 69.325 1426.04 69.532C1424.71 69.768 1423.26 69.886 1421.7 69.886C1418.71 69.886 1416.13 69.399 1413.94 68.424C1411.78 67.449 1410.13 65.912 1408.97 63.814C1407.82 61.686 1407.25 58.923 1407.25 55.525V9.16101ZM1462.67 0.916992V69H1448.8V0.916992H1462.67ZM1499.35 63.459L1511.89 21.041H1526.79L1507.51 76.181C1507.09 77.392 1506.53 78.692 1505.82 80.081C1505.14 81.47 1504.21 82.8 1503.03 84.07C1501.88 85.341 1500.4 86.375 1498.6 87.173C1496.79 87.971 1494.58 88.37 1491.95 88.37C1490.62 88.37 1489.58 88.296 1488.85 88.148C1488.14 88.03 1487.19 87.823 1486.01 87.528L1485.96 77.466C1486.35 77.466 1486.69 77.466 1486.98 77.466C1487.31 77.496 1487.63 77.51 1487.96 77.51C1489.61 77.51 1490.94 77.333 1491.95 76.978C1492.98 76.624 1493.78 76.092 1494.34 75.383C1494.93 74.703 1495.41 73.831 1495.76 72.768L1499.35 63.459ZM1495.14 21.041L1505.07 55.171L1506.75 69.842L1497.4 70.33L1480.25 21.041H1495.14Z" fill="white"/>
</svg>
